<?xml version="1.0" encoding="UTF-8" standalone="no"?>
<svg
   width="16"
   height="16"
   viewBox="0 0 16 16"
   fill="none"
   version="1.1"
   id="svg1"
   sodipodi:docname="star.svg"
   inkscape:version="1.3.2 (091e20e, 2023-11-25, custom)"
   xmlns:inkscape="http://www.inkscape.org/namespaces/inkscape"
   xmlns:sodipodi="http://sodipodi.sourceforge.net/DTD/sodipodi-0.dtd"
   xmlns="http://www.w3.org/2000/svg"
   xmlns:svg="http://www.w3.org/2000/svg">
  <defs
     id="defs1" />
  <sodipodi:namedview
     id="namedview1"
     pagecolor="#ffffff"
     bordercolor="#000000"
     borderopacity="0.25"
     inkscape:showpageshadow="2"
     inkscape:pageopacity="0.0"
     inkscape:pagecheckerboard="0"
     inkscape:deskcolor="#d1d1d1"
     inkscape:zoom="113.6875"
     inkscape:cx="8"
     inkscape:cy="8"
     inkscape:window-width="3840"
     inkscape:window-height="2054"
     inkscape:window-x="3829"
     inkscape:window-y="-11"
     inkscape:window-maximized="1"
     inkscape:current-layer="svg1" />
  <path
     d="m 6.8111878,1.3201048 c 0.37419,-1.15163697 2.00345,-1.15163397 2.37764,0 l 1.0001602,3.07828 c 0.1674,0.51502 0.6473,0.86372 1.1888,0.86372 h 3.2367 c 1.2109,0 1.7144,1.54952 0.7348,2.26128 l -2.6186,1.90247 c -0.4381,0.31835 -0.6214,0.8825502 -0.4541,1.3975502 l 1.0002,3.0783 c 0.3742,1.1516 -0.9439,2.1093 -1.9235,1.3975 l -2.6185502,-1.9025 c -0.43811,-0.3183 -1.03136,-0.3183 -1.46947,0 l -2.61853,1.9025 c -0.97964,0.7118 -2.29774,-0.2459 -1.92355,-1.3975 l 1.00019,-3.0783 c 0.16734,-0.515 -0.01598,-1.0792002 -0.45409,-1.3975502 l -2.61853601,-1.90248 c -0.979642,-0.71175 -0.4761706,-2.26127 0.73473601,-2.26127 h 3.23668 c 0.54154,0 1.02148,-0.3487 1.18882,-0.86373 z"
     fill="#0070d1"
     id="path1" />
</svg>
